<svg width="20" height="20" viewBox="0 0 20 20" fill="none" xmlns="http://www.w3.org/2000/svg">
    <path d="M3.3711 15.423C2.23478 14.2866 1.66663 13.7185 1.66663 13.0125C1.66663 12.3064 2.23478 11.7383 3.3711 10.602L10.6026 3.37049C11.7389 2.23417 12.3071 1.66602 13.0131 1.66602C13.7191 1.66602 14.2873 2.23417 15.4236 3.37049L16.6288 4.57574C17.7651 5.71206 18.3333 6.28021 18.3333 6.98623C18.3333 7.69225 17.7651 8.26041 16.6288 9.39673L9.39734 16.6282C8.26102 17.7645 7.69286 18.3327 6.98684 18.3327C6.28083 18.3327 5.71267 17.7645 4.57635 16.6282L3.3711 15.423Z" stroke="white" stroke-width="1.3"/>
    <path d="M7.05371 7.05469L8.23222 8.2332" stroke="white" stroke-width="1.3" stroke-linecap="round"/>
    <path d="M10.5892 3.51758L11.7677 4.69609" stroke="white" stroke-width="1.3" stroke-linecap="round"/>
    <path d="M3.51819 10.5898L4.6967 11.7684" stroke="white" stroke-width="1.3" stroke-linecap="round"/>
    <path d="M5.28589 8.82227L7.05366 10.59" stroke="white" stroke-width="1.3" stroke-linecap="round"/>
    <path d="M8.82153 5.28516L10.5893 7.05292" stroke="white" stroke-width="1.3" stroke-linecap="round"/>
</svg>
