<svg width="20" height="20" viewBox="0 0 20 20" fill="none" xmlns="http://www.w3.org/2000/svg">
    <mask id="mask0_14602_171096" style="mask-type:alpha" maskUnits="userSpaceOnUse" x="1" y="2" width="18" height="16">
        <path d="M9.99902 2.68359C11.1775 2.68359 12.13 3.07523 13.751 3.72363L16.0918 4.65918C16.904 4.98404 17.563 5.24715 18.0137 5.4834C18.2382 5.6011 18.4582 5.73561 18.6279 5.89844C18.8023 6.0658 18.9823 6.32181 18.9824 6.66699C18.9824 7.01245 18.8024 7.26911 18.6279 7.43652C18.4582 7.59935 18.2382 7.73386 18.0137 7.85156C17.7307 7.99991 17.3644 8.15606 16.9307 8.33398C17.3644 8.5119 17.7307 8.66806 18.0137 8.81641C18.2382 8.93411 18.4582 9.06862 18.6279 9.23145C18.8024 9.39886 18.9824 9.65552 18.9824 10.001C18.9823 10.3462 18.8023 10.6022 18.6279 10.7695C18.4582 10.9324 18.2382 11.0669 18.0137 11.1846C17.731 11.3327 17.3655 11.4891 16.9326 11.667C17.3654 11.8446 17.7311 12.0003 18.0137 12.1484C18.2382 12.2661 18.4582 12.4006 18.6279 12.5635C18.8024 12.7309 18.9824 12.9875 18.9824 13.333C18.9823 13.6782 18.8023 13.9342 18.6279 14.1016C18.4582 14.2644 18.2382 14.3989 18.0137 14.5166C17.563 14.7528 16.904 15.016 16.0918 15.3408L13.751 16.2764C12.13 16.9248 11.1775 17.3164 9.99902 17.3164C8.82061 17.3163 7.86807 16.9248 6.24707 16.2764L3.90723 15.3408C3.09493 15.0159 2.43506 14.7529 1.98438 14.5166C1.75996 14.3989 1.54078 14.2643 1.37109 14.1016C1.2184 13.9551 1.06137 13.7407 1.02441 13.458L1.01562 13.333L1.02441 13.207C1.06145 12.9244 1.21843 12.7099 1.37109 12.5635C1.5408 12.4007 1.75995 12.2661 1.98438 12.1484C2.26687 12.0003 2.63253 11.8445 3.06543 11.667C2.63249 11.4892 2.2669 11.3327 1.98438 11.1846C1.75996 11.0669 1.54078 10.9323 1.37109 10.7695C1.2184 10.623 1.06137 10.4087 1.02441 10.126L1.01562 10.001L1.02441 9.875C1.06145 9.59239 1.21843 9.37788 1.37109 9.23145C1.5408 9.06868 1.75995 8.93407 1.98438 8.81641C2.26731 8.66807 2.6336 8.51181 3.06738 8.33398C2.6336 8.15616 2.26731 7.9999 1.98438 7.85156C1.75995 7.73389 1.5408 7.59928 1.37109 7.43652C1.21843 7.29009 1.06146 7.07558 1.02441 6.79297L1.01562 6.66699L1.02441 6.54199C1.06137 6.25928 1.2184 6.04492 1.37109 5.89844C1.54078 5.73568 1.75996 5.60107 1.98438 5.4834C2.43506 5.24712 3.09493 4.9841 3.90723 4.65918L6.24707 3.72363C7.86807 3.07523 8.82061 2.68367 9.99902 2.68359ZM13.751 12.9443C12.13 13.5927 11.1775 13.9844 9.99902 13.9844C8.82061 13.9843 7.86807 13.5927 6.24707 12.9443L4.80273 12.3662L4.38965 12.5322C3.54755 12.8691 2.96562 13.1024 2.58887 13.2998C2.56881 13.3103 2.55013 13.3222 2.53223 13.332C2.55029 13.3419 2.56861 13.3546 2.58887 13.3652C2.96565 13.5627 3.54734 13.7969 4.38965 14.1338L6.73047 15.0693C8.41879 15.7447 9.12131 16.0156 9.99902 16.0156C10.8769 16.0156 11.5799 15.7448 13.2686 15.0693L15.6094 14.1338C16.4517 13.7968 17.0334 13.5627 17.4102 13.3652C17.4302 13.3547 17.4479 13.3418 17.4658 13.332C17.4481 13.3223 17.43 13.3102 17.4102 13.2998C17.0335 13.1023 16.4515 12.8691 15.6094 12.5322L15.1953 12.3662L13.751 12.9443ZM13.751 9.61133C12.13 10.2597 11.1775 10.6504 9.99902 10.6504C8.82061 10.6503 7.86807 10.2597 6.24707 9.61133L4.80469 9.0332L4.38965 9.2002C3.54755 9.53703 2.96562 9.77032 2.58887 9.96777C2.56881 9.97829 2.55013 9.99021 2.53223 10C2.55029 10.0099 2.56861 10.0226 2.58887 10.0332C2.96565 10.2307 3.54734 10.4648 4.38965 10.8018L6.73047 11.7373C8.41879 12.4126 9.12131 12.6835 9.99902 12.6836C10.8769 12.6836 11.5799 12.4128 13.2686 11.7373L15.6094 10.8018C16.4517 10.4648 17.0334 10.2307 17.4102 10.0332C17.4302 10.0227 17.4479 10.0098 17.4658 10C17.4481 9.99029 17.43 9.97819 17.4102 9.96777C17.0335 9.77032 16.4515 9.53705 15.6094 9.2002L15.1934 9.0332L13.751 9.61133ZM9.99902 3.98438C9.12131 3.98444 8.41879 4.25534 6.73047 4.93066L4.38965 5.86621C3.54734 6.20313 2.96565 6.43729 2.58887 6.63477C2.56876 6.64531 2.55017 6.65718 2.53223 6.66699C2.55025 6.67685 2.56866 6.6896 2.58887 6.7002C2.96562 6.89764 3.54755 7.13093 4.38965 7.46777L6.73047 8.4043C8.41871 9.07959 9.12133 9.35052 9.99902 9.35059C10.8769 9.35059 11.5799 9.07976 13.2686 8.4043L15.6094 7.46777C16.4515 7.13092 17.0335 6.89765 17.4102 6.7002C17.4302 6.6897 17.4479 6.67677 17.4658 6.66699C17.448 6.65726 17.4301 6.64521 17.4102 6.63477C17.0334 6.43728 16.4517 6.20315 15.6094 5.86621L13.2686 4.93066C11.5799 4.2552 10.8769 3.98438 9.99902 3.98438Z" fill="white"/>
    </mask>
    <g mask="url(#mask0_14602_171096)">
        <path d="M6.5 6.5V17.5L0 15V2H21L20 7.5L6.5 6.5Z" fill="white"/>
    </g>
    <circle cx="13.5" cy="13.5" r="1.5" stroke="white" stroke-width="1.3"/>
    <path d="M14.5298 8.08373C14.3154 8 14.0436 8 13.5 8C12.9564 8 12.6846 8 12.4702 8.08373C12.1843 8.19538 11.9572 8.40952 11.8387 8.67905C11.7847 8.80209 11.7635 8.94518 11.7553 9.1539C11.7431 9.46062 11.5762 9.74454 11.2943 9.89801C11.0124 10.0515 10.6682 10.0457 10.3803 9.90232C10.1845 9.80472 10.0425 9.75044 9.90241 9.73306C9.59563 9.69498 9.28537 9.77336 9.03988 9.95096C8.85576 10.0842 8.71986 10.3061 8.44805 10.75C8.17624 11.1938 8.04033 11.4158 8.01004 11.6327C7.96965 11.9219 8.05279 12.2145 8.24116 12.4459C8.32714 12.5516 8.44797 12.6404 8.63551 12.7515C8.91121 12.9148 9.08861 13.193 9.08859 13.5C9.08857 13.807 8.91118 14.0852 8.63551 14.2485C8.44794 14.3596 8.32709 14.4484 8.2411 14.554C8.05273 14.7855 7.9696 15.078 8.00999 15.3673C8.04028 15.5842 8.17618 15.8061 8.44799 16.25C8.7198 16.6939 8.85571 16.9158 9.03982 17.049C9.28531 17.2266 9.59557 17.305 9.90236 17.2669C10.0424 17.2495 10.1844 17.1953 10.3802 17.0977C10.6681 16.9542 11.0123 16.9485 11.2943 17.102C11.5762 17.2555 11.7431 17.5394 11.7553 17.8461C11.7635 18.0548 11.7847 18.1979 11.8387 18.321C11.9572 18.5905 12.1843 18.8046 12.4702 18.9163C12.6846 19 12.9564 19 13.5 19C14.0436 19 14.3154 19 14.5298 18.9163C14.8157 18.8046 15.0428 18.5905 15.1613 18.321C15.2153 18.1979 15.2365 18.0548 15.2447 17.8461C15.2569 17.5394 15.4237 17.2555 15.7057 17.102C15.9876 16.9485 16.3319 16.9542 16.6197 17.0976C16.8156 17.1952 16.9576 17.2495 17.0976 17.2669C17.4044 17.3049 17.7146 17.2266 17.9601 17.049C18.1442 16.9158 18.2801 16.6938 18.552 16.25C18.8238 15.8061 18.9597 15.5842 18.99 15.3672C19.0303 15.078 18.9472 14.7855 18.7588 14.554C18.6729 14.4484 18.552 14.3596 18.3645 14.2484C18.0888 14.0851 17.9114 13.8069 17.9114 13.5C17.9114 13.193 18.0888 12.9148 18.3645 12.7516C18.552 12.6404 18.6729 12.5516 18.7589 12.446C18.9473 12.2145 19.0304 11.922 18.99 11.6327C18.9597 11.4158 18.8238 11.1939 18.552 10.75C18.2802 10.3061 18.1443 10.0842 17.9602 9.951C17.7147 9.7734 17.4044 9.69502 17.0976 9.7331C16.9576 9.75048 16.8156 9.80475 16.6198 9.90234C16.3319 10.0458 15.9877 10.0515 15.7057 9.89803C15.4238 9.74455 15.2569 9.46061 15.2447 9.15387C15.2365 8.94516 15.2153 8.80208 15.1613 8.67905C15.0428 8.40952 14.8157 8.19538 14.5298 8.08373Z" stroke="white" stroke-width="1.3"/>
</svg>
