<svg width="48" height="48" viewBox="0 0 48 48" fill="none" xmlns="http://www.w3.org/2000/svg">
<path d="M24 1.2998C27.0935 1.2998 31.8222 2.38768 35.7441 5.19043C39.6084 7.95206 42.7002 12.3767 42.7002 19.2002C42.7001 26.107 40.1358 31.0493 36.4326 35.2627C32.8749 39.3106 28.4058 42.56 24 46.2891C19.5942 42.5601 15.1251 39.3106 11.5674 35.2627C7.8642 31.0493 5.29985 26.107 5.2998 19.2002C5.2998 12.3767 8.3916 7.95206 12.2559 5.19043C16.1778 2.38768 20.9065 1.29981 24 1.2998Z" fill="#0B78CB" stroke="white" stroke-width="2.6" stroke-linecap="round"/>
<path fill-rule="evenodd" clip-rule="evenodd" d="M27 10H29C30.8856 10 31.8284 10 32.4142 10.5858C33 11.1716 33 12.1144 33 14V29.25H34C34.4142 29.25 34.75 29.5858 34.75 30C34.75 30.4142 34.4142 30.75 34 30.75H14C13.5858 30.75 13.25 30.4142 13.25 30C13.25 29.5858 13.5858 29.25 14 29.25H15V17C15 15.1144 15 14.1716 15.5858 13.5858C16.1716 13 17.1144 13 19 13H23C24.8856 13 25.8284 13 26.4142 13.5858C27 14.1716 27 15.1144 27 17V29.25H28.5V17L28.5 16.9105C28.5001 16.0449 28.5002 15.2512 28.4134 14.6056C28.3178 13.8946 28.0929 13.1432 27.4749 12.5251C26.8568 11.9071 26.1054 11.6822 25.3944 11.5866C24.7579 11.501 23.9774 11.4999 23.126 11.5C23.2103 11.1127 23.351 10.8206 23.5858 10.5858C24.1716 10 25.1144 10 27 10ZM17.25 16C17.25 15.5858 17.5858 15.25 18 15.25H24C24.4142 15.25 24.75 15.5858 24.75 16C24.75 16.4142 24.4142 16.75 24 16.75H18C17.5858 16.75 17.25 16.4142 17.25 16ZM17.25 19C17.25 18.5858 17.5858 18.25 18 18.25H24C24.4142 18.25 24.75 18.5858 24.75 19C24.75 19.4142 24.4142 19.75 24 19.75H18C17.5858 19.75 17.25 19.4142 17.25 19ZM17.25 22C17.25 21.5858 17.5858 21.25 18 21.25H24C24.4142 21.25 24.75 21.5858 24.75 22C24.75 22.4142 24.4142 22.75 24 22.75H18C17.5858 22.75 17.25 22.4142 17.25 22ZM21 26.25C21.4142 26.25 21.75 26.5858 21.75 27V29.25H20.25V27C20.25 26.5858 20.5858 26.25 21 26.25Z" fill="white"/>
</svg>
